<svg xmlns="http://www.w3.org/2000/svg" viewBox="0 0 386.75 155.17" class="h-20 sm:h-40  w-auto -translate-x-[-40%] sm:-translate-x-[0%]"><g><path d="M29.43 100.69c0 5.81-2.3 9.57-6.9 11.26l9.19 12.97h-9.96l-8.04-11.57h-5.6v11.57H0V88.64h13.75c5.64 0 9.66.95 12.07 2.85 2.4 1.9 3.61 4.97 3.61 9.19zM19.67 105c1-.9 1.5-2.33 1.5-4.28s-.52-3.3-1.56-4.02c-1.04-.73-2.86-1.09-5.45-1.09H8.09v10.74h5.92c2.77 0 4.65-.45 5.66-1.35zM63.58 124.93l-3.37-7.84H45l-3.37 7.84h-8.62l15.67-36.28h7.84l15.67 36.28h-8.62zM52.63 99.45l-4.57 10.54h9.08l-4.51-10.54zM76.39 88.65h8.1v36.28h-8.1V88.65zM118.8 88.65h8.1v36.28h-8.1l-17.28-22.73v22.73h-8.1V88.65H101L118.8 112V88.65zM158.34 88.65h8.1v36.28h-8.1v-14.27h-14.43v14.27h-8.1V88.65h8.1v15.15h14.43V88.65zM201.21 124.93l-3.37-7.84h-15.21l-3.37 7.84h-8.62l15.67-36.28h7.84l15.67 36.28h-8.62zm-10.95-25.48l-4.57 10.54h9.08l-4.51-10.54zM230.69 117.76c3.98 0 7.23-1.57 9.76-4.72l5.19 5.35c-4.12 4.64-8.97 6.95-14.56 6.95s-10.19-1.76-13.81-5.29c-3.62-3.53-5.42-7.98-5.42-13.36s1.84-9.87 5.53-13.47c3.69-3.6 8.19-5.4 13.52-5.4 5.95 0 10.93 2.27 14.95 6.8l-5.03 5.71c-2.56-3.18-5.74-4.77-9.55-4.77-3.05 0-5.65 1-7.81 2.98-2.16 1.99-3.24 4.67-3.24 8.04s1.02 6.08 3.06 8.12c2.04 2.04 4.51 3.06 7.42 3.06zM252.02 88.65h8.1v14.89l13.7-14.89h10.02l-14.43 16.04c1.25 1.73 3.55 4.96 6.9 9.68 3.36 4.72 5.86 8.24 7.53 10.56h-9.44l-10.64-14.32-3.63 4.05v10.28h-8.1V88.66zM315.02 88.65v7.21h-18.06v7.47h16.24v6.9h-16.24v7.53h18.63v7.16h-26.73V88.64h26.16zM352.24 100.69c0 5.81-2.3 9.57-6.9 11.26l9.19 12.97h-9.96l-8.04-11.57h-5.6v11.57h-8.1V88.64h13.75c5.64 0 9.66.95 12.07 2.85 2.4 1.9 3.61 4.97 3.61 9.19zm-9.76 4.31c1-.9 1.5-2.33 1.5-4.28s-.52-3.3-1.56-4.02c-1.04-.73-2.86-1.09-5.45-1.09h-6.07v10.74h5.92c2.77 0 4.65-.45 5.66-1.35zM369.02 95.89c-.78.64-1.17 1.49-1.17 2.54s.48 1.89 1.43 2.52c.95.62 3.15 1.36 6.59 2.21 3.44.85 6.12 2.12 8.02 3.81 1.9 1.7 2.86 4.17 2.86 7.42s-1.22 5.89-3.66 7.91c-2.44 2.02-5.65 3.04-9.63 3.04-5.74 0-10.92-2.13-15.52-6.38l4.83-5.92c3.91 3.43 7.53 5.14 10.85 5.14 1.49 0 2.66-.32 3.5-.96.85-.64 1.27-1.51 1.27-2.59s-.45-1.95-1.35-2.6c-.9-.64-2.68-1.29-5.34-1.95-4.22-1-7.31-2.31-9.26-3.92-1.96-1.61-2.93-4.13-2.93-7.58s1.24-6.1 3.71-7.97c2.47-1.87 5.56-2.8 9.26-2.8 2.42 0 4.84.41 7.27 1.25s4.53 2.01 6.33 3.53l-4.1 5.92c-3.15-2.39-6.4-3.58-9.76-3.58-1.35 0-2.41.32-3.19.96zM185.38 39.63c22.17-10.54 49.89.51 63.48-25.51-19.25 14.65-49.29 4.87-71.4 14.85-29 13.09-24.9 38.63-4.43 58.5-11.35-17.59-7.36-38.47 12.35-47.84z"></path><path d="M239.96 0s-.03.02-.04.03c-14.47 20.81-40.29 11.2-61.36 20.94-7.52 3.48-12.79 8.63-15.83 14.67 3.14-4.37 7.63-8.1 13.49-10.8 22.28-10.3 49.88 1.04 63.74-24.83zM199.14 49.44c-23.78-1.02-29.64 17.43-22.65 37.59-1.66-15.58 8.03-28.18 24.35-27.8 18.36.42 33.16 17.13 50.99 4.32-17.79 3.31-34.57-13.33-52.7-14.11zM96.59 143.15v4.26h6.76v2.2h-6.76v5.36h-2.6v-14h10.22v2.18h-7.62zM109.91 153.54c-1.08-1.09-1.62-2.64-1.62-4.67v-7.9h2.6v7.8c0 2.75 1.19 4.12 3.56 4.12s3.54-1.37 3.54-4.12v-7.8h2.56v7.9c0 2.03-.54 3.58-1.61 4.67-1.07 1.09-2.58 1.63-4.51 1.63s-3.44-.54-4.52-1.63zM128.45 143.17h-4.64v-2.2h11.88v2.2h-4.64v11.8h-2.6v-11.8zM140.57 153.54c-1.08-1.09-1.62-2.64-1.62-4.67v-7.9h2.6v7.8c0 2.75 1.19 4.12 3.56 4.12s3.54-1.37 3.54-4.12v-7.8h2.56v7.9c0 2.03-.54 3.58-1.61 4.67-1.07 1.09-2.58 1.63-4.51 1.63s-3.44-.54-4.52-1.63zM165.69 154.97l-2.86-4.1c-.12.01-.3.02-.54.02h-3.16v4.08h-2.6v-14h5.76c1.21 0 2.27.2 3.17.6.9.4 1.59.97 2.07 1.72.48.75.72 1.63.72 2.66s-.26 1.96-.77 2.72c-.51.76-1.25 1.33-2.21 1.7l3.22 4.6h-2.8zm-.94-11.08c-.59-.48-1.45-.72-2.58-.72h-3.04v5.58h3.04c1.13 0 1.99-.24 2.58-.73.59-.49.88-1.18.88-2.07s-.29-1.58-.88-2.06zM172.83 140.97h2.6v14h-2.6v-14zM193.33 140.97v14h-2.14l-7.72-9.48v9.48h-2.58v-14h2.14l7.72 9.48v-9.48h2.58zM208.33 147.81h2.46v5.58c-.72.57-1.56 1.01-2.52 1.32s-1.95.46-2.96.46c-1.43 0-2.71-.31-3.86-.93a6.888 6.888 0 01-2.7-2.57c-.65-1.09-.98-2.33-.98-3.7s.33-2.61.98-3.7c.65-1.09 1.56-1.95 2.71-2.57 1.15-.62 2.45-.93 3.89-.93 1.17 0 2.24.19 3.2.58s1.77.95 2.42 1.7l-1.64 1.6c-1.07-1.07-2.35-1.6-3.86-1.6-.99 0-1.86.21-2.63.62s-1.37.99-1.8 1.74c-.43.75-.65 1.6-.65 2.56s.22 1.77.65 2.52c.43.75 1.03 1.33 1.8 1.76s1.64.64 2.61.64c1.09 0 2.05-.24 2.88-.72v-4.36zM224.3 154.71c-1.01-.31-1.8-.71-2.39-1.22l.9-2.02c.57.45 1.28.82 2.11 1.11.83.29 1.67.43 2.51.43 1.04 0 1.82-.17 2.33-.5s.77-.77.77-1.32c0-.4-.14-.73-.43-.99s-.65-.46-1.09-.61c-.44-.15-1.04-.31-1.8-.5-1.07-.25-1.93-.51-2.59-.76-.66-.25-1.23-.65-1.7-1.19s-.71-1.27-.71-2.19c0-.77.21-1.48.63-2.11.42-.63 1.05-1.14 1.9-1.51s1.88-.56 3.11-.56c.85 0 1.69.11 2.52.32.83.21 1.54.52 2.14.92l-.82 2.02a8.11 8.11 0 00-1.92-.82c-.67-.19-1.31-.28-1.94-.28-1.03 0-1.79.17-2.29.52s-.75.81-.75 1.38c0 .4.14.73.43.98s.65.45 1.09.6c.44.15 1.04.31 1.8.5 1.04.24 1.89.49 2.56.75.67.26 1.24.66 1.71 1.19s.71 1.25.71 2.16c0 .77-.21 1.47-.63 2.1-.42.63-1.06 1.13-1.91 1.5s-1.89.56-3.12.56c-1.08 0-2.12-.15-3.13-.46zM246.43 151.73h-7l-1.38 3.24h-2.68l6.3-14h2.56l6.32 14h-2.72l-1.4-3.24zm-.86-2.04l-2.64-6.12-2.62 6.12h5.26zM254.01 140.97h2.6v11.8h7.32v2.2h-9.92v-14zM278.17 152.79v2.18h-10.5v-14h10.22v2.18h-7.62v3.64h6.76v2.14h-6.76v3.86h7.9zM283.96 154.71c-1.01-.31-1.8-.71-2.39-1.22l.9-2.02c.57.45 1.28.82 2.11 1.11.83.29 1.67.43 2.51.43 1.04 0 1.82-.17 2.33-.5s.77-.77.77-1.32c0-.4-.14-.73-.43-.99s-.65-.46-1.09-.61c-.44-.15-1.04-.31-1.8-.5-1.07-.25-1.93-.51-2.59-.76-.66-.25-1.23-.65-1.7-1.19s-.71-1.27-.71-2.19c0-.77.21-1.48.63-2.11.42-.63 1.05-1.14 1.9-1.51s1.88-.56 3.11-.56c.85 0 1.69.11 2.52.32.83.21 1.54.52 2.14.92l-.82 2.02a8.11 8.11 0 00-1.92-.82c-.67-.19-1.31-.28-1.94-.28-1.03 0-1.79.17-2.29.52s-.75.81-.75 1.38c0 .4.14.73.43.98s.65.45 1.09.6c.44.15 1.04.31 1.8.5 1.04.24 1.89.49 2.56.75.67.26 1.24.66 1.71 1.19s.71 1.25.71 2.16c0 .77-.21 1.47-.63 2.1-.42.63-1.06 1.13-1.91 1.5s-1.89.56-3.12.56c-1.08 0-2.12-.15-3.13-.46z"></path></g></svg>